<?xml version="1.0" encoding="UTF-8"?>
<svg version="1.1" xmlns="http://www.w3.org/2000/svg" width="536" height="248">
<path d="M0 0 C0.69349548 -0.00525696 1.38699097 -0.01051392 2.10150146 -0.01593018 C4.3777974 -0.02905793 6.65338533 -0.02041836 8.9296875 -0.01025391 C10.52099745 -0.01227673 12.11230649 -0.01518991 13.70361328 -0.01895142 C17.03231669 -0.02336497 20.36077795 -0.01697514 23.68945312 -0.00292969 C27.94645465 0.0141618 32.20288866 0.00431539 36.45986938 -0.01364708 C39.74393962 -0.02451125 43.02787632 -0.02102655 46.31195068 -0.0132637 C47.88116524 -0.01126896 49.4503921 -0.01369536 51.01959229 -0.02070236 C53.21651108 -0.02836055 55.41252335 -0.01665297 57.609375 0 C58.85702637 0.00238678 60.10467773 0.00477356 61.39013672 0.00723267 C67.70800621 0.71209793 71.72649117 3.64865813 75.8046875 8.38818359 C78.52343529 12.94931789 79.18276106 16.2986346 79.19287109 21.58349609 C79.19812805 22.27699158 79.20338501 22.97048706 79.20880127 23.68499756 C79.22192902 25.96129349 79.21328945 28.23688142 79.203125 30.51318359 C79.20514783 32.10449354 79.208061 33.69580259 79.21182251 35.28710938 C79.21623606 38.61581279 79.20984624 41.94427404 79.19580078 45.27294922 C79.17870929 49.52995074 79.1885557 53.78638475 79.20651817 58.04336548 C79.21738234 61.32743572 79.21389764 64.61137242 79.2061348 67.89544678 C79.20414006 69.46466134 79.20656645 71.0338882 79.21357346 72.60308838 C79.22123164 74.80000717 79.20952406 76.99601945 79.19287109 79.19287109 C79.19048431 80.44052246 79.18809753 81.68817383 79.18563843 82.97363281 C78.48077316 89.2915023 75.54421296 93.30998727 70.8046875 97.38818359 C66.2435532 100.10693138 62.8942365 100.76625715 57.609375 100.77636719 C56.91587952 100.78162415 56.22238403 100.7868811 55.50787354 100.79229736 C53.2315776 100.80542512 50.95598967 100.79678554 48.6796875 100.78662109 C47.08837755 100.78864392 45.49706851 100.7915571 43.90576172 100.7953186 C40.57705831 100.79973215 37.24859705 100.79334233 33.91992188 100.77929688 C29.66292035 100.76220539 25.40648634 100.7720518 21.14950562 100.79001427 C17.86543538 100.80087844 14.58149868 100.79739374 11.29742432 100.78963089 C9.72820976 100.78763615 8.1589829 100.79006255 6.58978271 100.79706955 C4.39286392 100.80472774 2.19685165 100.79302015 0 100.77636719 C-1.24765137 100.77398041 -2.49530273 100.77159363 -3.78076172 100.76913452 C-10.09863121 100.06426926 -14.11711617 97.12770905 -18.1953125 92.38818359 C-20.91406029 87.8270493 -21.57338606 84.47773259 -21.58349609 79.19287109 C-21.58875305 78.49937561 -21.59401001 77.80588013 -21.59942627 77.09136963 C-21.61255402 74.8150737 -21.60391445 72.53948577 -21.59375 70.26318359 C-21.59577283 68.67187364 -21.598686 67.0805646 -21.60244751 65.48925781 C-21.60686106 62.1605544 -21.60047124 58.83209315 -21.58642578 55.50341797 C-21.56933429 51.24641645 -21.5791807 46.98998243 -21.59714317 42.73300171 C-21.60800734 39.44893147 -21.60452264 36.16499477 -21.5967598 32.88092041 C-21.59476506 31.31170585 -21.59719145 29.74247899 -21.60419846 28.17327881 C-21.61185664 25.97636002 -21.60014906 23.78034774 -21.58349609 21.58349609 C-21.58110931 20.33584473 -21.57872253 19.08819336 -21.57626343 17.80273438 C-20.87139816 11.48486489 -17.93483796 7.46637992 -13.1953125 3.38818359 C-8.6341782 0.6694358 -5.2848615 0.01011004 0 0 Z " fill="#ECF0FD" transform="translate(437.1953125,127.61181640625)"/>
<path d="M0 0 C0.69349548 -0.00525696 1.38699097 -0.01051392 2.10150146 -0.01593018 C4.3777974 -0.02905793 6.65338533 -0.02041836 8.9296875 -0.01025391 C10.52099745 -0.01227673 12.11230649 -0.01518991 13.70361328 -0.01895142 C17.03231669 -0.02336497 20.36077795 -0.01697514 23.68945312 -0.00292969 C27.94645465 0.0141618 32.20288866 0.00431539 36.45986938 -0.01364708 C39.74393962 -0.02451125 43.02787632 -0.02102655 46.31195068 -0.0132637 C47.88116524 -0.01126896 49.4503921 -0.01369536 51.01959229 -0.02070236 C53.21651108 -0.02836055 55.41252335 -0.01665297 57.609375 0 C58.85702637 0.00238678 60.10467773 0.00477356 61.39013672 0.00723267 C67.70800621 0.71209793 71.72649117 3.64865813 75.8046875 8.38818359 C78.52343529 12.94931789 79.18276106 16.2986346 79.19287109 21.58349609 C79.19812805 22.27699158 79.20338501 22.97048706 79.20880127 23.68499756 C79.22192902 25.96129349 79.21328945 28.23688142 79.203125 30.51318359 C79.20514783 32.10449354 79.208061 33.69580259 79.21182251 35.28710938 C79.21623606 38.61581279 79.20984624 41.94427404 79.19580078 45.27294922 C79.17870929 49.52995074 79.1885557 53.78638475 79.20651817 58.04336548 C79.21738234 61.32743572 79.21389764 64.61137242 79.2061348 67.89544678 C79.20414006 69.46466134 79.20656645 71.0338882 79.21357346 72.60308838 C79.22123164 74.80000717 79.20952406 76.99601945 79.19287109 79.19287109 C79.19048431 80.44052246 79.18809753 81.68817383 79.18563843 82.97363281 C78.48077316 89.2915023 75.54421296 93.30998727 70.8046875 97.38818359 C66.2435532 100.10693138 62.8942365 100.76625715 57.609375 100.77636719 C56.91587952 100.78162415 56.22238403 100.7868811 55.50787354 100.79229736 C53.2315776 100.80542512 50.95598967 100.79678554 48.6796875 100.78662109 C47.08837755 100.78864392 45.49706851 100.7915571 43.90576172 100.7953186 C40.57705831 100.79973215 37.24859705 100.79334233 33.91992188 100.77929688 C29.66292035 100.76220539 25.40648634 100.7720518 21.14950562 100.79001427 C17.86543538 100.80087844 14.58149868 100.79739374 11.29742432 100.78963089 C9.72820976 100.78763615 8.1589829 100.79006255 6.58978271 100.79706955 C4.39286392 100.80472774 2.19685165 100.79302015 0 100.77636719 C-1.24765137 100.77398041 -2.49530273 100.77159363 -3.78076172 100.76913452 C-10.09863121 100.06426926 -14.11711617 97.12770905 -18.1953125 92.38818359 C-20.91406029 87.8270493 -21.57338606 84.47773259 -21.58349609 79.19287109 C-21.58875305 78.49937561 -21.59401001 77.80588013 -21.59942627 77.09136963 C-21.61255402 74.8150737 -21.60391445 72.53948577 -21.59375 70.26318359 C-21.59577283 68.67187364 -21.598686 67.0805646 -21.60244751 65.48925781 C-21.60686106 62.1605544 -21.60047124 58.83209315 -21.58642578 55.50341797 C-21.56933429 51.24641645 -21.5791807 46.98998243 -21.59714317 42.73300171 C-21.60800734 39.44893147 -21.60452264 36.16499477 -21.5967598 32.88092041 C-21.59476506 31.31170585 -21.59719145 29.74247899 -21.60419846 28.17327881 C-21.61185664 25.97636002 -21.60014906 23.78034774 -21.58349609 21.58349609 C-21.58110931 20.33584473 -21.57872253 19.08819336 -21.57626343 17.80273438 C-20.87139816 11.48486489 -17.93483796 7.46637992 -13.1953125 3.38818359 C-8.6341782 0.6694358 -5.2848615 0.01011004 0 0 Z " fill="#F6F7FE" transform="translate(329.1953125,127.61181640625)"/>
<path d="M0 0 C0.69349548 -0.00525696 1.38699097 -0.01051392 2.10150146 -0.01593018 C4.3777974 -0.02905793 6.65338533 -0.02041836 8.9296875 -0.01025391 C10.52099745 -0.01227673 12.11230649 -0.01518991 13.70361328 -0.01895142 C17.03231669 -0.02336497 20.36077795 -0.01697514 23.68945312 -0.00292969 C27.94645465 0.0141618 32.20288866 0.00431539 36.45986938 -0.01364708 C39.74393962 -0.02451125 43.02787632 -0.02102655 46.31195068 -0.0132637 C47.88116524 -0.01126896 49.4503921 -0.01369536 51.01959229 -0.02070236 C53.21651108 -0.02836055 55.41252335 -0.01665297 57.609375 0 C58.85702637 0.00238678 60.10467773 0.00477356 61.39013672 0.00723267 C67.70800621 0.71209793 71.72649117 3.64865813 75.8046875 8.38818359 C78.52343529 12.94931789 79.18276106 16.2986346 79.19287109 21.58349609 C79.19812805 22.27699158 79.20338501 22.97048706 79.20880127 23.68499756 C79.22192902 25.96129349 79.21328945 28.23688142 79.203125 30.51318359 C79.20514783 32.10449354 79.208061 33.69580259 79.21182251 35.28710938 C79.21623606 38.61581279 79.20984624 41.94427404 79.19580078 45.27294922 C79.17870929 49.52995074 79.1885557 53.78638475 79.20651817 58.04336548 C79.21738234 61.32743572 79.21389764 64.61137242 79.2061348 67.89544678 C79.20414006 69.46466134 79.20656645 71.0338882 79.21357346 72.60308838 C79.22123164 74.80000717 79.20952406 76.99601945 79.19287109 79.19287109 C79.19048431 80.44052246 79.18809753 81.68817383 79.18563843 82.97363281 C78.48077316 89.2915023 75.54421296 93.30998727 70.8046875 97.38818359 C66.2435532 100.10693138 62.8942365 100.76625715 57.609375 100.77636719 C56.91587952 100.78162415 56.22238403 100.7868811 55.50787354 100.79229736 C53.2315776 100.80542512 50.95598967 100.79678554 48.6796875 100.78662109 C47.08837755 100.78864392 45.49706851 100.7915571 43.90576172 100.7953186 C40.57705831 100.79973215 37.24859705 100.79334233 33.91992188 100.77929688 C29.66292035 100.76220539 25.40648634 100.7720518 21.14950562 100.79001427 C17.86543538 100.80087844 14.58149868 100.79739374 11.29742432 100.78963089 C9.72820976 100.78763615 8.1589829 100.79006255 6.58978271 100.79706955 C4.39286392 100.80472774 2.19685165 100.79302015 0 100.77636719 C-1.24765137 100.77398041 -2.49530273 100.77159363 -3.78076172 100.76913452 C-10.09863121 100.06426926 -14.11711617 97.12770905 -18.1953125 92.38818359 C-20.91406029 87.8270493 -21.57338606 84.47773259 -21.58349609 79.19287109 C-21.58875305 78.49937561 -21.59401001 77.80588013 -21.59942627 77.09136963 C-21.61255402 74.8150737 -21.60391445 72.53948577 -21.59375 70.26318359 C-21.59577283 68.67187364 -21.598686 67.0805646 -21.60244751 65.48925781 C-21.60686106 62.1605544 -21.60047124 58.83209315 -21.58642578 55.50341797 C-21.56933429 51.24641645 -21.5791807 46.98998243 -21.59714317 42.73300171 C-21.60800734 39.44893147 -21.60452264 36.16499477 -21.5967598 32.88092041 C-21.59476506 31.31170585 -21.59719145 29.74247899 -21.60419846 28.17327881 C-21.61185664 25.97636002 -21.60014906 23.78034774 -21.58349609 21.58349609 C-21.58110931 20.33584473 -21.57872253 19.08819336 -21.57626343 17.80273438 C-20.87139816 11.48486489 -17.93483796 7.46637992 -13.1953125 3.38818359 C-8.6341782 0.6694358 -5.2848615 0.01011004 0 0 Z " fill="#3753C1" transform="translate(149.1953125,127.61181640625)"/>
<path d="M0 0 C0.69349548 -0.00525696 1.38699097 -0.01051392 2.10150146 -0.01593018 C4.3777974 -0.02905793 6.65338533 -0.02041836 8.9296875 -0.01025391 C10.52099745 -0.01227673 12.11230649 -0.01518991 13.70361328 -0.01895142 C17.03231669 -0.02336497 20.36077795 -0.01697514 23.68945312 -0.00292969 C27.94645465 0.0141618 32.20288866 0.00431539 36.45986938 -0.01364708 C39.74393962 -0.02451125 43.02787632 -0.02102655 46.31195068 -0.0132637 C47.88116524 -0.01126896 49.4503921 -0.01369536 51.01959229 -0.02070236 C53.21651108 -0.02836055 55.41252335 -0.01665297 57.609375 0 C58.85702637 0.00238678 60.10467773 0.00477356 61.39013672 0.00723267 C67.70800621 0.71209793 71.72649117 3.64865813 75.8046875 8.38818359 C78.52343529 12.94931789 79.18276106 16.2986346 79.19287109 21.58349609 C79.19812805 22.27699158 79.20338501 22.97048706 79.20880127 23.68499756 C79.22192902 25.96129349 79.21328945 28.23688142 79.203125 30.51318359 C79.20514783 32.10449354 79.208061 33.69580259 79.21182251 35.28710938 C79.21623606 38.61581279 79.20984624 41.94427404 79.19580078 45.27294922 C79.17870929 49.52995074 79.1885557 53.78638475 79.20651817 58.04336548 C79.21738234 61.32743572 79.21389764 64.61137242 79.2061348 67.89544678 C79.20414006 69.46466134 79.20656645 71.0338882 79.21357346 72.60308838 C79.22123164 74.80000717 79.20952406 76.99601945 79.19287109 79.19287109 C79.19048431 80.44052246 79.18809753 81.68817383 79.18563843 82.97363281 C78.48077316 89.2915023 75.54421296 93.30998727 70.8046875 97.38818359 C66.2435532 100.10693138 62.8942365 100.76625715 57.609375 100.77636719 C56.91587952 100.78162415 56.22238403 100.7868811 55.50787354 100.79229736 C53.2315776 100.80542512 50.95598967 100.79678554 48.6796875 100.78662109 C47.08837755 100.78864392 45.49706851 100.7915571 43.90576172 100.7953186 C40.57705831 100.79973215 37.24859705 100.79334233 33.91992188 100.77929688 C29.66292035 100.76220539 25.40648634 100.7720518 21.14950562 100.79001427 C17.86543538 100.80087844 14.58149868 100.79739374 11.29742432 100.78963089 C9.72820976 100.78763615 8.1589829 100.79006255 6.58978271 100.79706955 C4.39286392 100.80472774 2.19685165 100.79302015 0 100.77636719 C-1.24765137 100.77398041 -2.49530273 100.77159363 -3.78076172 100.76913452 C-10.09863121 100.06426926 -14.11711617 97.12770905 -18.1953125 92.38818359 C-20.91406029 87.8270493 -21.57338606 84.47773259 -21.58349609 79.19287109 C-21.58875305 78.49937561 -21.59401001 77.80588013 -21.59942627 77.09136963 C-21.61255402 74.8150737 -21.60391445 72.53948577 -21.59375 70.26318359 C-21.59577283 68.67187364 -21.598686 67.0805646 -21.60244751 65.48925781 C-21.60686106 62.1605544 -21.60047124 58.83209315 -21.58642578 55.50341797 C-21.56933429 51.24641645 -21.5791807 46.98998243 -21.59714317 42.73300171 C-21.60800734 39.44893147 -21.60452264 36.16499477 -21.5967598 32.88092041 C-21.59476506 31.31170585 -21.59719145 29.74247899 -21.60419846 28.17327881 C-21.61185664 25.97636002 -21.60014906 23.78034774 -21.58349609 21.58349609 C-21.58110931 20.33584473 -21.57872253 19.08819336 -21.57626343 17.80273438 C-20.87139816 11.48486489 -17.93483796 7.46637992 -13.1953125 3.38818359 C-8.6341782 0.6694358 -5.2848615 0.01011004 0 0 Z " fill="#2F47A5" transform="translate(41.1953125,127.61181640625)"/>
<path d="M0 0 C0.69349548 -0.00525696 1.38699097 -0.01051392 2.10150146 -0.01593018 C4.3777974 -0.02905793 6.65338533 -0.02041836 8.9296875 -0.01025391 C10.52099745 -0.01227673 12.11230649 -0.01518991 13.70361328 -0.01895142 C17.03231669 -0.02336497 20.36077795 -0.01697514 23.68945312 -0.00292969 C27.94645465 0.0141618 32.20288866 0.00431539 36.45986938 -0.01364708 C39.74393962 -0.02451125 43.02787632 -0.02102655 46.31195068 -0.0132637 C47.88116524 -0.01126896 49.4503921 -0.01369536 51.01959229 -0.02070236 C53.21651108 -0.02836055 55.41252335 -0.01665297 57.609375 0 C58.85702637 0.00238678 60.10467773 0.00477356 61.39013672 0.00723267 C67.70800621 0.71209793 71.72649117 3.64865813 75.8046875 8.38818359 C78.52343529 12.94931789 79.18276106 16.2986346 79.19287109 21.58349609 C79.19812805 22.27699158 79.20338501 22.97048706 79.20880127 23.68499756 C79.22192902 25.96129349 79.21328945 28.23688142 79.203125 30.51318359 C79.20514783 32.10449354 79.208061 33.69580259 79.21182251 35.28710938 C79.21623606 38.61581279 79.20984624 41.94427404 79.19580078 45.27294922 C79.17870929 49.52995074 79.1885557 53.78638475 79.20651817 58.04336548 C79.21738234 61.32743572 79.21389764 64.61137242 79.2061348 67.89544678 C79.20414006 69.46466134 79.20656645 71.0338882 79.21357346 72.60308838 C79.22123164 74.80000717 79.20952406 76.99601945 79.19287109 79.19287109 C79.19048431 80.44052246 79.18809753 81.68817383 79.18563843 82.97363281 C78.48077316 89.2915023 75.54421296 93.30998727 70.8046875 97.38818359 C66.2435532 100.10693138 62.8942365 100.76625715 57.609375 100.77636719 C56.91587952 100.78162415 56.22238403 100.7868811 55.50787354 100.79229736 C53.2315776 100.80542512 50.95598967 100.79678554 48.6796875 100.78662109 C47.08837755 100.78864392 45.49706851 100.7915571 43.90576172 100.7953186 C40.57705831 100.79973215 37.24859705 100.79334233 33.91992188 100.77929688 C29.66292035 100.76220539 25.40648634 100.7720518 21.14950562 100.79001427 C17.86543538 100.80087844 14.58149868 100.79739374 11.29742432 100.78963089 C9.72820976 100.78763615 8.1589829 100.79006255 6.58978271 100.79706955 C4.39286392 100.80472774 2.19685165 100.79302015 0 100.77636719 C-1.24765137 100.77398041 -2.49530273 100.77159363 -3.78076172 100.76913452 C-10.09863121 100.06426926 -14.11711617 97.12770905 -18.1953125 92.38818359 C-20.91406029 87.8270493 -21.57338606 84.47773259 -21.58349609 79.19287109 C-21.58875305 78.49937561 -21.59401001 77.80588013 -21.59942627 77.09136963 C-21.61255402 74.8150737 -21.60391445 72.53948577 -21.59375 70.26318359 C-21.59577283 68.67187364 -21.598686 67.0805646 -21.60244751 65.48925781 C-21.60686106 62.1605544 -21.60047124 58.83209315 -21.58642578 55.50341797 C-21.56933429 51.24641645 -21.5791807 46.98998243 -21.59714317 42.73300171 C-21.60800734 39.44893147 -21.60452264 36.16499477 -21.5967598 32.88092041 C-21.59476506 31.31170585 -21.59719145 29.74247899 -21.60419846 28.17327881 C-21.61185664 25.97636002 -21.60014906 23.78034774 -21.58349609 21.58349609 C-21.58110931 20.33584473 -21.57872253 19.08819336 -21.57626343 17.80273438 C-20.87139816 11.48486489 -17.93483796 7.46637992 -13.1953125 3.38818359 C-8.6341782 0.6694358 -5.2848615 0.01011004 0 0 Z " fill="#F6F7FE" transform="translate(329.1953125,19.61181640625)"/>
<path d="M0 0 C0.69349548 -0.00525696 1.38699097 -0.01051392 2.10150146 -0.01593018 C4.3777974 -0.02905793 6.65338533 -0.02041836 8.9296875 -0.01025391 C10.52099745 -0.01227673 12.11230649 -0.01518991 13.70361328 -0.01895142 C17.03231669 -0.02336497 20.36077795 -0.01697514 23.68945312 -0.00292969 C27.94645465 0.0141618 32.20288866 0.00431539 36.45986938 -0.01364708 C39.74393962 -0.02451125 43.02787632 -0.02102655 46.31195068 -0.0132637 C47.88116524 -0.01126896 49.4503921 -0.01369536 51.01959229 -0.02070236 C53.21651108 -0.02836055 55.41252335 -0.01665297 57.609375 0 C58.85702637 0.00238678 60.10467773 0.00477356 61.39013672 0.00723267 C67.70800621 0.71209793 71.72649117 3.64865813 75.8046875 8.38818359 C78.52343529 12.94931789 79.18276106 16.2986346 79.19287109 21.58349609 C79.19812805 22.27699158 79.20338501 22.97048706 79.20880127 23.68499756 C79.22192902 25.96129349 79.21328945 28.23688142 79.203125 30.51318359 C79.20514783 32.10449354 79.208061 33.69580259 79.21182251 35.28710938 C79.21623606 38.61581279 79.20984624 41.94427404 79.19580078 45.27294922 C79.17870929 49.52995074 79.1885557 53.78638475 79.20651817 58.04336548 C79.21738234 61.32743572 79.21389764 64.61137242 79.2061348 67.89544678 C79.20414006 69.46466134 79.20656645 71.0338882 79.21357346 72.60308838 C79.22123164 74.80000717 79.20952406 76.99601945 79.19287109 79.19287109 C79.19048431 80.44052246 79.18809753 81.68817383 79.18563843 82.97363281 C78.48077316 89.2915023 75.54421296 93.30998727 70.8046875 97.38818359 C66.2435532 100.10693138 62.8942365 100.76625715 57.609375 100.77636719 C56.91587952 100.78162415 56.22238403 100.7868811 55.50787354 100.79229736 C53.2315776 100.80542512 50.95598967 100.79678554 48.6796875 100.78662109 C47.08837755 100.78864392 45.49706851 100.7915571 43.90576172 100.7953186 C40.57705831 100.79973215 37.24859705 100.79334233 33.91992188 100.77929688 C29.66292035 100.76220539 25.40648634 100.7720518 21.14950562 100.79001427 C17.86543538 100.80087844 14.58149868 100.79739374 11.29742432 100.78963089 C9.72820976 100.78763615 8.1589829 100.79006255 6.58978271 100.79706955 C4.39286392 100.80472774 2.19685165 100.79302015 0 100.77636719 C-1.24765137 100.77398041 -2.49530273 100.77159363 -3.78076172 100.76913452 C-10.09863121 100.06426926 -14.11711617 97.12770905 -18.1953125 92.38818359 C-20.91406029 87.8270493 -21.57338606 84.47773259 -21.58349609 79.19287109 C-21.58875305 78.49937561 -21.59401001 77.80588013 -21.59942627 77.09136963 C-21.61255402 74.8150737 -21.60391445 72.53948577 -21.59375 70.26318359 C-21.59577283 68.67187364 -21.598686 67.0805646 -21.60244751 65.48925781 C-21.60686106 62.1605544 -21.60047124 58.83209315 -21.58642578 55.50341797 C-21.56933429 51.24641645 -21.5791807 46.98998243 -21.59714317 42.73300171 C-21.60800734 39.44893147 -21.60452264 36.16499477 -21.5967598 32.88092041 C-21.59476506 31.31170585 -21.59719145 29.74247899 -21.60419846 28.17327881 C-21.61185664 25.97636002 -21.60014906 23.78034774 -21.58349609 21.58349609 C-21.58110931 20.33584473 -21.57872253 19.08819336 -21.57626343 17.80273438 C-20.87139816 11.48486489 -17.93483796 7.46637992 -13.1953125 3.38818359 C-8.6341782 0.6694358 -5.2848615 0.01011004 0 0 Z " fill="#2F47A5" transform="translate(41.1953125,19.61181640625)"/>
<path d="M0 0 C0.9840683 -0.00524185 1.9681366 -0.0104837 2.98202515 -0.0158844 C5.06141215 -0.02229318 7.14083546 -0.02098245 9.22021484 -0.01245117 C12.36753777 -0.00398933 15.51301458 -0.0326414 18.66015625 -0.06445312 C35.9770897 -0.12631191 49.26697495 2.51608341 62.5234375 14.62109375 C73.65685286 26.55739964 76.57615944 39.84215451 76.1171875 55.578125 C75.43354515 68.24748278 69.10624811 80.16913363 59.84375 88.80859375 C49.20078334 97.16231852 38.35734572 100.91906989 24.9453125 100.83203125 C23.95267395 100.83490143 22.9600354 100.83777161 21.93731689 100.84072876 C19.8566429 100.84275567 17.77594924 100.83732283 15.6953125 100.82470703 C12.51779706 100.8085651 9.3415402 100.82463809 6.1640625 100.84375 C4.13280971 100.84176866 2.1015577 100.83792725 0.0703125 100.83203125 C-0.87354309 100.83810394 -1.81739868 100.84417664 -2.78985596 100.85043335 C-9.48719855 100.77913009 -13.72132805 99.5892606 -18.9140625 95.12109375 C-23.27798543 90.04950764 -24.60201675 85.89234489 -24.61474609 79.23828125 C-24.62000305 78.54478577 -24.62526001 77.85129028 -24.63067627 77.13677979 C-24.64380402 74.86048385 -24.63516445 72.58489592 -24.625 70.30859375 C-24.62702283 68.7172838 -24.629936 67.12597476 -24.63369751 65.53466797 C-24.63811106 62.20596456 -24.63172124 58.8775033 -24.61767578 55.54882812 C-24.60058429 51.2918266 -24.6104307 47.03539259 -24.62839317 42.77841187 C-24.63925734 39.49434163 -24.63577264 36.21040493 -24.6280098 32.92633057 C-24.62601506 31.35711601 -24.62844145 29.78788915 -24.63544846 28.21868896 C-24.64310664 26.02177017 -24.63139906 23.8257579 -24.61474609 21.62890625 C-24.61235931 20.38125488 -24.60997253 19.13360352 -24.60751343 17.84814453 C-23.90264816 11.53027504 -20.96608796 7.51179008 -16.2265625 3.43359375 C-10.85230489 -0.00379346 -6.17590483 -0.01933722 0 0 Z " fill="#ECF0FC" transform="translate(440.2265625,19.56640625)"/>
<path d="M0 0 C0.9840683 -0.00524185 1.9681366 -0.0104837 2.98202515 -0.0158844 C5.06141215 -0.02229318 7.14083546 -0.02098245 9.22021484 -0.01245117 C12.36753777 -0.00398933 15.51301458 -0.0326414 18.66015625 -0.06445312 C35.9770897 -0.12631191 49.26697495 2.51608341 62.5234375 14.62109375 C73.65685286 26.55739964 76.57615944 39.84215451 76.1171875 55.578125 C75.43354515 68.24748278 69.10624811 80.16913363 59.84375 88.80859375 C49.20078334 97.16231852 38.35734572 100.91906989 24.9453125 100.83203125 C23.95267395 100.83490143 22.9600354 100.83777161 21.93731689 100.84072876 C19.8566429 100.84275567 17.77594924 100.83732283 15.6953125 100.82470703 C12.51779706 100.8085651 9.3415402 100.82463809 6.1640625 100.84375 C4.13280971 100.84176866 2.1015577 100.83792725 0.0703125 100.83203125 C-0.87354309 100.83810394 -1.81739868 100.84417664 -2.78985596 100.85043335 C-9.48719855 100.77913009 -13.72132805 99.5892606 -18.9140625 95.12109375 C-23.27798543 90.04950764 -24.60201675 85.89234489 -24.61474609 79.23828125 C-24.62000305 78.54478577 -24.62526001 77.85129028 -24.63067627 77.13677979 C-24.64380402 74.86048385 -24.63516445 72.58489592 -24.625 70.30859375 C-24.62702283 68.7172838 -24.629936 67.12597476 -24.63369751 65.53466797 C-24.63811106 62.20596456 -24.63172124 58.8775033 -24.61767578 55.54882812 C-24.60058429 51.2918266 -24.6104307 47.03539259 -24.62839317 42.77841187 C-24.63925734 39.49434163 -24.63577264 36.21040493 -24.6280098 32.92633057 C-24.62601506 31.35711601 -24.62844145 29.78788915 -24.63544846 28.21868896 C-24.64310664 26.02177017 -24.63139906 23.8257579 -24.61474609 21.62890625 C-24.61235931 20.38125488 -24.60997253 19.13360352 -24.60751343 17.84814453 C-23.90264816 11.53027504 -20.96608796 7.51179008 -16.2265625 3.43359375 C-10.85230489 -0.00379346 -6.17590483 -0.01933722 0 0 Z " fill="#3753C1" transform="translate(152.2265625,19.56640625)"/>
<path d="M0 0 C0.33 0 0.66 0 1 0 C1.1953125 6.0546875 1.1953125 6.0546875 1 8 C-1 10 -1 10 -2.9453125 10.1953125 C-4.96354167 10.13020833 -6.98177083 10.06510417 -9 10 C-9 9.67 -9 9.34 -9 9 C-7.329375 8.7215625 -7.329375 8.7215625 -5.625 8.4375 C-4.42875 7.963125 -3.2325 7.48875 -2 7 C-0.45913678 3.48599332 -0.45913678 3.48599332 0 0 Z " fill="#9746FF" transform="translate(535,238)"/>
<path d="M0 0 C0.33 0 0.66 0 1 0 C1.185625 1.11375 1.37125 2.2275 1.5625 3.375 C2.036875 4.57125 2.51125 5.7675 3 7 C6.51400668 8.54086322 6.51400668 8.54086322 10 9 C10 9.33 10 9.66 10 10 C3.9453125 10.1953125 3.9453125 10.1953125 2 10 C0 8 0 8 -0.1953125 6.0546875 C-0.13020833 4.03645833 -0.06510417 2.01822917 0 0 Z " fill="#9746FF" transform="translate(0,238)"/>
<path d="M0 0 C2.01822917 0.06510417 4.03645833 0.13020833 6.0546875 0.1953125 C6.0546875 0.5253125 6.0546875 0.8553125 6.0546875 1.1953125 C4.3840625 1.47375 4.3840625 1.47375 2.6796875 1.7578125 C1.4834375 2.2321875 0.2871875 2.7065625 -0.9453125 3.1953125 C-2.48617572 6.70931918 -2.48617572 6.70931918 -2.9453125 10.1953125 C-3.2753125 10.1953125 -3.6053125 10.1953125 -3.9453125 10.1953125 C-4.140625 4.140625 -4.140625 4.140625 -3.9453125 2.1953125 C-1.9453125 0.1953125 -1.9453125 0.1953125 0 0 Z " fill="#9746FF" transform="translate(3.9453125,-0.1953125)"/>
<path d="M0 0 C6.0546875 -0.1953125 6.0546875 -0.1953125 8 0 C10 2 10 2 10.1953125 3.9453125 C10.13020833 5.96354167 10.06510417 7.98177083 10 10 C9.67 10 9.34 10 9 10 C8.814375 8.88625 8.62875 7.7725 8.4375 6.625 C7.963125 5.42875 7.48875 4.2325 7 3 C3.48599332 1.45913678 3.48599332 1.45913678 0 1 C0 0.67 0 0.34 0 0 Z " fill="#9747FF" transform="translate(526,0)"/>
<path d="M0 0 C3.63 0 7.26 0 11 0 C11 0.33 11 0.66 11 1 C7.37 1 3.74 1 0 1 C0 0.67 0 0.34 0 0 Z " fill="#9747FF" transform="translate(495,247)"/>
<path d="M0 0 C3.63 0 7.26 0 11 0 C11 0.33 11 0.66 11 1 C7.37 1 3.74 1 0 1 C0 0.67 0 0.34 0 0 Z " fill="#9747FF" transform="translate(480,247)"/>
<path d="M0 0 C3.63 0 7.26 0 11 0 C11 0.33 11 0.66 11 1 C7.37 1 3.74 1 0 1 C0 0.67 0 0.34 0 0 Z " fill="#9747FF" transform="translate(465,247)"/>
<path d="M0 0 C3.63 0 7.26 0 11 0 C11 0.33 11 0.66 11 1 C7.37 1 3.74 1 0 1 C0 0.67 0 0.34 0 0 Z " fill="#9747FF" transform="translate(450,247)"/>
<path d="M0 0 C3.63 0 7.26 0 11 0 C11 0.33 11 0.66 11 1 C7.37 1 3.74 1 0 1 C0 0.67 0 0.34 0 0 Z " fill="#9747FF" transform="translate(435,247)"/>
<path d="M0 0 C3.63 0 7.26 0 11 0 C11 0.33 11 0.66 11 1 C7.37 1 3.74 1 0 1 C0 0.67 0 0.34 0 0 Z " fill="#9747FF" transform="translate(420,247)"/>
<path d="M0 0 C3.63 0 7.26 0 11 0 C11 0.33 11 0.66 11 1 C7.37 1 3.74 1 0 1 C0 0.67 0 0.34 0 0 Z " fill="#9747FF" transform="translate(405,247)"/>
<path d="M0 0 C3.63 0 7.26 0 11 0 C11 0.33 11 0.66 11 1 C7.37 1 3.74 1 0 1 C0 0.67 0 0.34 0 0 Z " fill="#9747FF" transform="translate(390,247)"/>
<path d="M0 0 C3.63 0 7.26 0 11 0 C11 0.33 11 0.66 11 1 C7.37 1 3.74 1 0 1 C0 0.67 0 0.34 0 0 Z " fill="#9747FF" transform="translate(375,247)"/>
<path d="M0 0 C3.63 0 7.26 0 11 0 C11 0.33 11 0.66 11 1 C7.37 1 3.74 1 0 1 C0 0.67 0 0.34 0 0 Z " fill="#9646FF" transform="translate(360,247)"/>
<path d="M0 0 C3.63 0 7.26 0 11 0 C11 0.33 11 0.66 11 1 C7.37 1 3.74 1 0 1 C0 0.67 0 0.34 0 0 Z " fill="#9646FF" transform="translate(345,247)"/>
<path d="M0 0 C3.63 0 7.26 0 11 0 C11 0.33 11 0.66 11 1 C7.37 1 3.74 1 0 1 C0 0.67 0 0.34 0 0 Z " fill="#9646FF" transform="translate(330,247)"/>
<path d="M0 0 C3.63 0 7.26 0 11 0 C11 0.33 11 0.66 11 1 C7.37 1 3.74 1 0 1 C0 0.67 0 0.34 0 0 Z " fill="#9646FF" transform="translate(315,247)"/>
<path d="M0 0 C3.63 0 7.26 0 11 0 C11 0.33 11 0.66 11 1 C7.37 1 3.74 1 0 1 C0 0.67 0 0.34 0 0 Z " fill="#9746FF" transform="translate(300,247)"/>
<path d="M0 0 C3.63 0 7.26 0 11 0 C11 0.33 11 0.66 11 1 C7.37 1 3.74 1 0 1 C0 0.67 0 0.34 0 0 Z " fill="#9746FF" transform="translate(285,247)"/>
<path d="M0 0 C3.63 0 7.26 0 11 0 C11 0.33 11 0.66 11 1 C7.37 1 3.74 1 0 1 C0 0.67 0 0.34 0 0 Z " fill="#9746FF" transform="translate(270,247)"/>
<path d="M0 0 C3.63 0 7.26 0 11 0 C11 0.33 11 0.66 11 1 C7.37 1 3.74 1 0 1 C0 0.67 0 0.34 0 0 Z " fill="#9746FF" transform="translate(255,247)"/>
<path d="M0 0 C3.63 0 7.26 0 11 0 C11 0.33 11 0.66 11 1 C7.37 1 3.74 1 0 1 C0 0.67 0 0.34 0 0 Z " fill="#9746FF" transform="translate(240,247)"/>
<path d="M0 0 C3.63 0 7.26 0 11 0 C11 0.33 11 0.66 11 1 C7.37 1 3.74 1 0 1 C0 0.67 0 0.34 0 0 Z " fill="#9646FF" transform="translate(225,247)"/>
<path d="M0 0 C3.63 0 7.26 0 11 0 C11 0.33 11 0.66 11 1 C7.37 1 3.74 1 0 1 C0 0.67 0 0.34 0 0 Z " fill="#9646FF" transform="translate(210,247)"/>
<path d="M0 0 C3.63 0 7.26 0 11 0 C11 0.33 11 0.66 11 1 C7.37 1 3.74 1 0 1 C0 0.67 0 0.34 0 0 Z " fill="#9646FF" transform="translate(195,247)"/>
<path d="M0 0 C3.63 0 7.26 0 11 0 C11 0.33 11 0.66 11 1 C7.37 1 3.74 1 0 1 C0 0.67 0 0.34 0 0 Z " fill="#9646FF" transform="translate(180,247)"/>
<path d="M0 0 C3.63 0 7.26 0 11 0 C11 0.33 11 0.66 11 1 C7.37 1 3.74 1 0 1 C0 0.67 0 0.34 0 0 Z " fill="#9646FF" transform="translate(165,247)"/>
<path d="M0 0 C3.63 0 7.26 0 11 0 C11 0.33 11 0.66 11 1 C7.37 1 3.74 1 0 1 C0 0.67 0 0.34 0 0 Z " fill="#9646FF" transform="translate(150,247)"/>
<path d="M0 0 C3.63 0 7.26 0 11 0 C11 0.33 11 0.66 11 1 C7.37 1 3.74 1 0 1 C0 0.67 0 0.34 0 0 Z " fill="#9646FF" transform="translate(135,247)"/>
<path d="M0 0 C3.63 0 7.26 0 11 0 C11 0.33 11 0.66 11 1 C7.37 1 3.74 1 0 1 C0 0.67 0 0.34 0 0 Z " fill="#9646FF" transform="translate(120,247)"/>
<path d="M0 0 C3.63 0 7.26 0 11 0 C11 0.33 11 0.66 11 1 C7.37 1 3.74 1 0 1 C0 0.67 0 0.34 0 0 Z " fill="#9646FF" transform="translate(105,247)"/>
<path d="M0 0 C3.63 0 7.26 0 11 0 C11 0.33 11 0.66 11 1 C7.37 1 3.74 1 0 1 C0 0.67 0 0.34 0 0 Z " fill="#9747FF" transform="translate(90,247)"/>
<path d="M0 0 C3.63 0 7.26 0 11 0 C11 0.33 11 0.66 11 1 C7.37 1 3.74 1 0 1 C0 0.67 0 0.34 0 0 Z " fill="#9747FF" transform="translate(75,247)"/>
<path d="M0 0 C3.63 0 7.26 0 11 0 C11 0.33 11 0.66 11 1 C7.37 1 3.74 1 0 1 C0 0.67 0 0.34 0 0 Z " fill="#9747FF" transform="translate(60,247)"/>
<path d="M0 0 C3.63 0 7.26 0 11 0 C11 0.33 11 0.66 11 1 C7.37 1 3.74 1 0 1 C0 0.67 0 0.34 0 0 Z " fill="#9747FF" transform="translate(45,247)"/>
<path d="M0 0 C3.63 0 7.26 0 11 0 C11 0.33 11 0.66 11 1 C7.37 1 3.74 1 0 1 C0 0.67 0 0.34 0 0 Z " fill="#9747FF" transform="translate(30,247)"/>
<path d="M0 0 C0.33 0 0.66 0 1 0 C1 3.63 1 7.26 1 11 C0.67 11 0.34 11 0 11 C0 7.37 0 3.74 0 0 Z " fill="#9746FF" transform="translate(535,223)"/>
<path d="M0 0 C0.33 0 0.66 0 1 0 C1 3.63 1 7.26 1 11 C0.67 11 0.34 11 0 11 C0 7.37 0 3.74 0 0 Z " fill="#9746FF" transform="translate(0,223)"/>
<path d="M0 0 C0.33 0 0.66 0 1 0 C1 3.63 1 7.26 1 11 C0.67 11 0.34 11 0 11 C0 7.37 0 3.74 0 0 Z " fill="#9746FF" transform="translate(535,208)"/>
<path d="M0 0 C0.33 0 0.66 0 1 0 C1 3.63 1 7.26 1 11 C0.67 11 0.34 11 0 11 C0 7.37 0 3.74 0 0 Z " fill="#9746FF" transform="translate(0,208)"/>
<path d="M0 0 C0.33 0 0.66 0 1 0 C1 3.63 1 7.26 1 11 C0.67 11 0.34 11 0 11 C0 7.37 0 3.74 0 0 Z " fill="#9646FF" transform="translate(535,193)"/>
<path d="M0 0 C0.33 0 0.66 0 1 0 C1 3.63 1 7.26 1 11 C0.67 11 0.34 11 0 11 C0 7.37 0 3.74 0 0 Z " fill="#9646FF" transform="translate(0,193)"/>
<path d="M0 0 C0.33 0 0.66 0 1 0 C1 3.63 1 7.26 1 11 C0.67 11 0.34 11 0 11 C0 7.37 0 3.74 0 0 Z " fill="#9746FF" transform="translate(535,178)"/>
<path d="M0 0 C0.33 0 0.66 0 1 0 C1 3.63 1 7.26 1 11 C0.67 11 0.34 11 0 11 C0 7.37 0 3.74 0 0 Z " fill="#9746FF" transform="translate(0,178)"/>
<path d="M0 0 C0.33 0 0.66 0 1 0 C1 3.63 1 7.26 1 11 C0.67 11 0.34 11 0 11 C0 7.37 0 3.74 0 0 Z " fill="#9647FF" transform="translate(535,163)"/>
<path d="M0 0 C0.33 0 0.66 0 1 0 C1 3.63 1 7.26 1 11 C0.67 11 0.34 11 0 11 C0 7.37 0 3.74 0 0 Z " fill="#9647FF" transform="translate(0,163)"/>
<path d="M0 0 C0.33 0 0.66 0 1 0 C1 3.63 1 7.26 1 11 C0.67 11 0.34 11 0 11 C0 7.37 0 3.74 0 0 Z " fill="#9647FF" transform="translate(535,148)"/>
<path d="M0 0 C0.33 0 0.66 0 1 0 C1 3.63 1 7.26 1 11 C0.67 11 0.34 11 0 11 C0 7.37 0 3.74 0 0 Z " fill="#9647FF" transform="translate(0,148)"/>
<path d="M0 0 C0.33 0 0.66 0 1 0 C1 3.63 1 7.26 1 11 C0.67 11 0.34 11 0 11 C0 7.37 0 3.74 0 0 Z " fill="#9747FF" transform="translate(535,133)"/>
<path d="M0 0 C0.33 0 0.66 0 1 0 C1 3.63 1 7.26 1 11 C0.67 11 0.34 11 0 11 C0 7.37 0 3.74 0 0 Z " fill="#9747FF" transform="translate(0,133)"/>
<path d="M0 0 C0.33 0 0.66 0 1 0 C1 3.63 1 7.26 1 11 C0.67 11 0.34 11 0 11 C0 7.37 0 3.74 0 0 Z " fill="#9746FF" transform="translate(535,104)"/>
<path d="M0 0 C0.33 0 0.66 0 1 0 C1 3.63 1 7.26 1 11 C0.67 11 0.34 11 0 11 C0 7.37 0 3.74 0 0 Z " fill="#9746FF" transform="translate(0,104)"/>
<path d="M0 0 C0.33 0 0.66 0 1 0 C1 3.63 1 7.26 1 11 C0.67 11 0.34 11 0 11 C0 7.37 0 3.74 0 0 Z " fill="#9746FF" transform="translate(535,89)"/>
<path d="M0 0 C0.33 0 0.66 0 1 0 C1 3.63 1 7.26 1 11 C0.67 11 0.34 11 0 11 C0 7.37 0 3.74 0 0 Z " fill="#9746FF" transform="translate(0,89)"/>
<path d="M0 0 C0.33 0 0.66 0 1 0 C1 3.63 1 7.26 1 11 C0.67 11 0.34 11 0 11 C0 7.37 0 3.74 0 0 Z " fill="#9646FF" transform="translate(535,74)"/>
<path d="M0 0 C0.33 0 0.66 0 1 0 C1 3.63 1 7.26 1 11 C0.67 11 0.34 11 0 11 C0 7.37 0 3.74 0 0 Z " fill="#9646FF" transform="translate(0,74)"/>
<path d="M0 0 C0.33 0 0.66 0 1 0 C1 3.63 1 7.26 1 11 C0.67 11 0.34 11 0 11 C0 7.37 0 3.74 0 0 Z " fill="#9746FF" transform="translate(535,59)"/>
<path d="M0 0 C0.33 0 0.66 0 1 0 C1 3.63 1 7.26 1 11 C0.67 11 0.34 11 0 11 C0 7.37 0 3.74 0 0 Z " fill="#9746FF" transform="translate(0,59)"/>
<path d="M0 0 C0.33 0 0.66 0 1 0 C1 3.63 1 7.26 1 11 C0.67 11 0.34 11 0 11 C0 7.37 0 3.74 0 0 Z " fill="#9647FF" transform="translate(535,44)"/>
<path d="M0 0 C0.33 0 0.66 0 1 0 C1 3.63 1 7.26 1 11 C0.67 11 0.34 11 0 11 C0 7.37 0 3.74 0 0 Z " fill="#9647FF" transform="translate(0,44)"/>
<path d="M0 0 C0.33 0 0.66 0 1 0 C1 3.63 1 7.26 1 11 C0.67 11 0.34 11 0 11 C0 7.37 0 3.74 0 0 Z " fill="#9647FF" transform="translate(535,29)"/>
<path d="M0 0 C0.33 0 0.66 0 1 0 C1 3.63 1 7.26 1 11 C0.67 11 0.34 11 0 11 C0 7.37 0 3.74 0 0 Z " fill="#9647FF" transform="translate(0,29)"/>
<path d="M0 0 C0.33 0 0.66 0 1 0 C1 3.63 1 7.26 1 11 C0.67 11 0.34 11 0 11 C0 7.37 0 3.74 0 0 Z " fill="#9747FF" transform="translate(535,14)"/>
<path d="M0 0 C0.33 0 0.66 0 1 0 C1 3.63 1 7.26 1 11 C0.67 11 0.34 11 0 11 C0 7.37 0 3.74 0 0 Z " fill="#9747FF" transform="translate(0,14)"/>
<path d="M0 0 C3.63 0 7.26 0 11 0 C11 0.33 11 0.66 11 1 C7.37 1 3.74 1 0 1 C0 0.67 0 0.34 0 0 Z " fill="#9747FF" transform="translate(495,0)"/>
<path d="M0 0 C3.63 0 7.26 0 11 0 C11 0.33 11 0.66 11 1 C7.37 1 3.74 1 0 1 C0 0.67 0 0.34 0 0 Z " fill="#9747FF" transform="translate(480,0)"/>
<path d="M0 0 C3.63 0 7.26 0 11 0 C11 0.33 11 0.66 11 1 C7.37 1 3.74 1 0 1 C0 0.67 0 0.34 0 0 Z " fill="#9747FF" transform="translate(465,0)"/>
<path d="M0 0 C3.63 0 7.26 0 11 0 C11 0.33 11 0.66 11 1 C7.37 1 3.74 1 0 1 C0 0.67 0 0.34 0 0 Z " fill="#9747FF" transform="translate(450,0)"/>
<path d="M0 0 C3.63 0 7.26 0 11 0 C11 0.33 11 0.66 11 1 C7.37 1 3.74 1 0 1 C0 0.67 0 0.34 0 0 Z " fill="#9747FF" transform="translate(435,0)"/>
<path d="M0 0 C3.63 0 7.26 0 11 0 C11 0.33 11 0.66 11 1 C7.37 1 3.74 1 0 1 C0 0.67 0 0.34 0 0 Z " fill="#9747FF" transform="translate(420,0)"/>
<path d="M0 0 C3.63 0 7.26 0 11 0 C11 0.33 11 0.66 11 1 C7.37 1 3.74 1 0 1 C0 0.67 0 0.34 0 0 Z " fill="#9747FF" transform="translate(405,0)"/>
<path d="M0 0 C3.63 0 7.26 0 11 0 C11 0.33 11 0.66 11 1 C7.37 1 3.74 1 0 1 C0 0.67 0 0.34 0 0 Z " fill="#9747FF" transform="translate(390,0)"/>
<path d="M0 0 C3.63 0 7.26 0 11 0 C11 0.33 11 0.66 11 1 C7.37 1 3.74 1 0 1 C0 0.67 0 0.34 0 0 Z " fill="#9747FF" transform="translate(375,0)"/>
<path d="M0 0 C3.63 0 7.26 0 11 0 C11 0.33 11 0.66 11 1 C7.37 1 3.74 1 0 1 C0 0.67 0 0.34 0 0 Z " fill="#9646FF" transform="translate(360,0)"/>
<path d="M0 0 C3.63 0 7.26 0 11 0 C11 0.33 11 0.66 11 1 C7.37 1 3.74 1 0 1 C0 0.67 0 0.34 0 0 Z " fill="#9646FF" transform="translate(345,0)"/>
<path d="M0 0 C3.63 0 7.26 0 11 0 C11 0.33 11 0.66 11 1 C7.37 1 3.74 1 0 1 C0 0.67 0 0.34 0 0 Z " fill="#9646FF" transform="translate(330,0)"/>
<path d="M0 0 C3.63 0 7.26 0 11 0 C11 0.33 11 0.66 11 1 C7.37 1 3.74 1 0 1 C0 0.67 0 0.34 0 0 Z " fill="#9646FF" transform="translate(315,0)"/>
<path d="M0 0 C3.63 0 7.26 0 11 0 C11 0.33 11 0.66 11 1 C7.37 1 3.74 1 0 1 C0 0.67 0 0.34 0 0 Z " fill="#9746FF" transform="translate(300,0)"/>
<path d="M0 0 C3.63 0 7.26 0 11 0 C11 0.33 11 0.66 11 1 C7.37 1 3.74 1 0 1 C0 0.67 0 0.34 0 0 Z " fill="#9746FF" transform="translate(285,0)"/>
<path d="M0 0 C3.63 0 7.26 0 11 0 C11 0.33 11 0.66 11 1 C7.37 1 3.74 1 0 1 C0 0.67 0 0.34 0 0 Z " fill="#9746FF" transform="translate(270,0)"/>
<path d="M0 0 C3.63 0 7.26 0 11 0 C11 0.33 11 0.66 11 1 C7.37 1 3.74 1 0 1 C0 0.67 0 0.34 0 0 Z " fill="#9746FF" transform="translate(255,0)"/>
<path d="M0 0 C3.63 0 7.26 0 11 0 C11 0.33 11 0.66 11 1 C7.37 1 3.74 1 0 1 C0 0.67 0 0.34 0 0 Z " fill="#9746FF" transform="translate(240,0)"/>
<path d="M0 0 C3.63 0 7.26 0 11 0 C11 0.33 11 0.66 11 1 C7.37 1 3.74 1 0 1 C0 0.67 0 0.34 0 0 Z " fill="#9646FF" transform="translate(225,0)"/>
<path d="M0 0 C3.63 0 7.26 0 11 0 C11 0.33 11 0.66 11 1 C7.37 1 3.74 1 0 1 C0 0.67 0 0.34 0 0 Z " fill="#9646FF" transform="translate(210,0)"/>
<path d="M0 0 C3.63 0 7.26 0 11 0 C11 0.33 11 0.66 11 1 C7.37 1 3.74 1 0 1 C0 0.67 0 0.34 0 0 Z " fill="#9646FF" transform="translate(195,0)"/>
<path d="M0 0 C3.63 0 7.26 0 11 0 C11 0.33 11 0.66 11 1 C7.37 1 3.74 1 0 1 C0 0.67 0 0.34 0 0 Z " fill="#9646FF" transform="translate(180,0)"/>
<path d="M0 0 C3.63 0 7.26 0 11 0 C11 0.33 11 0.66 11 1 C7.37 1 3.74 1 0 1 C0 0.67 0 0.34 0 0 Z " fill="#9646FF" transform="translate(165,0)"/>
<path d="M0 0 C3.63 0 7.26 0 11 0 C11 0.33 11 0.66 11 1 C7.37 1 3.74 1 0 1 C0 0.67 0 0.34 0 0 Z " fill="#9646FF" transform="translate(150,0)"/>
<path d="M0 0 C3.63 0 7.26 0 11 0 C11 0.33 11 0.66 11 1 C7.37 1 3.74 1 0 1 C0 0.67 0 0.34 0 0 Z " fill="#9646FF" transform="translate(135,0)"/>
<path d="M0 0 C3.63 0 7.26 0 11 0 C11 0.33 11 0.66 11 1 C7.37 1 3.74 1 0 1 C0 0.67 0 0.34 0 0 Z " fill="#9646FF" transform="translate(120,0)"/>
<path d="M0 0 C3.63 0 7.26 0 11 0 C11 0.33 11 0.66 11 1 C7.37 1 3.74 1 0 1 C0 0.67 0 0.34 0 0 Z " fill="#9646FF" transform="translate(105,0)"/>
<path d="M0 0 C3.63 0 7.26 0 11 0 C11 0.33 11 0.66 11 1 C7.37 1 3.74 1 0 1 C0 0.67 0 0.34 0 0 Z " fill="#9747FF" transform="translate(90,0)"/>
<path d="M0 0 C3.63 0 7.26 0 11 0 C11 0.33 11 0.66 11 1 C7.37 1 3.74 1 0 1 C0 0.67 0 0.34 0 0 Z " fill="#9747FF" transform="translate(75,0)"/>
<path d="M0 0 C3.63 0 7.26 0 11 0 C11 0.33 11 0.66 11 1 C7.37 1 3.74 1 0 1 C0 0.67 0 0.34 0 0 Z " fill="#9747FF" transform="translate(60,0)"/>
<path d="M0 0 C3.63 0 7.26 0 11 0 C11 0.33 11 0.66 11 1 C7.37 1 3.74 1 0 1 C0 0.67 0 0.34 0 0 Z " fill="#9747FF" transform="translate(45,0)"/>
<path d="M0 0 C3.63 0 7.26 0 11 0 C11 0.33 11 0.66 11 1 C7.37 1 3.74 1 0 1 C0 0.67 0 0.34 0 0 Z " fill="#9747FF" transform="translate(30,0)"/>
<path d="M0 0 C3.3 0 6.6 0 10 0 C10 0.33 10 0.66 10 1 C6.7 1 3.4 1 0 1 C0 0.67 0 0.34 0 0 Z " fill="#9747FF" transform="translate(511,247)"/>
<path d="M0 0 C3.3 0 6.6 0 10 0 C10 0.33 10 0.66 10 1 C6.7 1 3.4 1 0 1 C0 0.67 0 0.34 0 0 Z " fill="#9747FF" transform="translate(15,247)"/>
<path d="M0 0 C0.33 0 0.66 0 1 0 C1 3.3 1 6.6 1 10 C0.67 10 0.34 10 0 10 C0 6.7 0 3.4 0 0 Z " fill="#9747FF" transform="translate(535,119)"/>
<path d="M0 0 C0.33 0 0.66 0 1 0 C1 3.3 1 6.6 1 10 C0.67 10 0.34 10 0 10 C0 6.7 0 3.4 0 0 Z " fill="#9747FF" transform="translate(0,119)"/>
<path d="M0 0 C3.3 0 6.6 0 10 0 C10 0.33 10 0.66 10 1 C6.7 1 3.4 1 0 1 C0 0.67 0 0.34 0 0 Z " fill="#9747FF" transform="translate(511,0)"/>
<path d="M0 0 C3.3 0 6.6 0 10 0 C10 0.33 10 0.66 10 1 C6.7 1 3.4 1 0 1 C0 0.67 0 0.34 0 0 Z " fill="#9747FF" transform="translate(15,0)"/>
</svg>
